# xmcd
#
# Track frame offsets:
#	150
#	18426
#	42605
#	70560
#	126183
#	145460
#	159494
#	186095
#	206760
#	260889
#	285152
#	301551
#
# Disc length: 4253 seconds
#
# Revision: 1
# Processed by: cddbd v1.5.2PL0 Copyright (c) Steve Scherf et al.
# Submitted via: audiograbber 1.83.01
#
DISCID=ab109b0c
DTITLE=Marcian Petrescu and Trenul de Noapte - Povestile Bluesului
DYEAR=2009
DGENRE=Blues
TTITLE0=Picioare lungi si fusta scurta
TTITLE1=Nu Vreau sa mai muncesc degeaba
TTITLE2=La incorporare
TTITLE3=Iubirea ta e ca un cancer
TTITLE4=Mahmur de dimineata
TTITLE5=I'm ready
TTITLE6=After midnight
TTITLE7=Built for comfort
TTITLE8=Cold cold feeling
TTITLE9=Too tired
TTITLE10=Pe-un drum gresit
TTITLE11=Spui ca femeia ta-i urata
EXTD=
EXTT0=
EXTT1=
EXTT2=
EXTT3=
EXTT4=
EXTT5=
EXTT6=
EXTT7=
EXTT8=
EXTT9=
EXTT10=
EXTT11=
PLAYORDER=
